# xmcd
#
# Track frame offsets:
#	150
#	20844
#	46066
#	130868
#	155620
#
# Disc length: 3379 seconds
#
# Revision: 1
# Processed by: cddbd v1.5.1PL0 Copyright (c) Steve Scherf et al.
# Submitted via: audiograbber 1.83.01
#
DISCID=3a0d3105
DTITLE=Johnny Winter And - 1971-02-01 - Stockholm
DYEAR=1900
DGENRE=
TTITLE0=Good Morning Little School Girl
TTITLE1=Rock´n Roll Hootchie Coo
TTITLE2=Be Careful With A Fool - It's My Own Fault
TTITLE3=Jumping Jack Flash
TTITLE4=Great Balls of Fire - Whole Lotta Shaking Going On
EXTD=
EXTT0=
EXTT1=
EXTT2=
EXTT3=
EXTT4=
PLAYORDER=
